<svg xmlns="http://www.w3.org/2000/svg" width="48" height="48" viewBox="0 0 48 48"><title>48px_content delivery</title><rect data-element="frame" x="0" y="0" width="48" height="48" rx="24" ry="24" stroke="none" fill="#ffffff"></rect><g class="nc-icon-wrapper" transform="translate(9.600000000000001 9.600000000000001) scale(0.6)"><path fill="#b7e3fc" d="M7.272 20.08L15.49 6.967l1.696 1.063-8.219 13.113z"></path><path fill="#b7e3fc" d="M20.343 7.059l.852-1.809 17.686 8.328-.851 1.808z"></path><path fill="#b7e3fc" d="M21.19 34.51l17.188-16.513 1.385 1.441-17.188 16.513z"></path><path fill="#b7e3fc" d="M37.471 39.892l2.935-20.086 1.979.29L39.45 40.18z"></path><path fill="#b7e3fc" d="M9.687 22.152l28.192-6.259.434 1.954-28.192 6.259z"></path><path d="M19 43a5 5 0 1 1 5-5 5.006 5.006 0 0 1-5 5z" fill="#47b0ea"></path><path d="M6 29a5 5 0 1 1 5-5 5.006 5.006 0 0 1-5 5z" fill="#47b0ea"></path><path d="M42 21a5 5 0 1 1 5-5 5.006 5.006 0 0 1-5 5z" fill="#47b0ea"></path><path d="M18 9a4 4 0 1 1 4-4 4 4 0 0 1-4 4z" fill="#47b0ea"></path><path d="M38 47a4 4 0 1 1 4-4 4 4 0 0 1-4 4z" fill="#47b0ea"></path></g></svg>