<svg xmlns="http://www.w3.org/2000/svg" width="48" height="48" viewBox="0 0 48 48"><title>48px_augmented reality</title><rect data-element="frame" x="0" y="0" width="48" height="48" rx="24" ry="24" stroke="none" fill="#ffffff"></rect><g class="nc-icon-wrapper" transform="translate(9.600000000000001 9.600000000000001) scale(0.6)"><path d="M44.539 41.4l-7.678-12.911A1 1 0 0 0 36 28H12a1 1 0 0 0-.86.489l-7.671 12.9z" fill="#636363"></path><path d="M6 46a3 3 0 0 1 0-6h36a3 3 0 0 1 0 6" fill="#363636"></path><path fill="#c2eff4" d="M39.594 37l-4.162-7H12.568l-4.162 7h31.188z"></path><path d="M32.887 6.556a1 1 0 0 0-.44-.451l-8-4a1 1 0 0 0-.894 0l-8 4a1 1 0 0 0-.44.451L24 11z" fill="#c2eff4"></path><path d="M24 11v11a1 1 0 0 0 .447-.105l8-4A1 1 0 0 0 33 17V7a1 1 0 0 0-.113-.444z" fill="#7ed3dd"></path><path d="M15.113 6.556A1 1 0 0 0 15 7v10a1 1 0 0 0 .553.895l8 4A1 1 0 0 0 24 22V11z" fill="#a0e6ee"></path></g></svg>