<svg xmlns="http://www.w3.org/2000/svg" width="48" height="48" viewBox="0 0 48 48"><title>48px_podcast</title><rect data-element="frame" x="0" y="0" width="48" height="48" rx="24" ry="24" stroke="none" fill="#ffffff"></rect><g class="nc-icon-wrapper" transform="translate(9.600000000000001 9.600000000000001) scale(0.6)"><path d="M24 9a14.987 14.987 0 0 0-8.615 27.26l-.169-2.7a13 13 0 1 1 17.568 0l-.169 2.7A14.987 14.987 0 0 0 24 9z" fill="#a4dae0"></path><path d="M24 1a23 23 0 0 0-8.034 44.549l-.138-2.2a21 21 0 1 1 16.344 0l-.138 2.2A23 23 0 0 0 24 1z" fill="#a4dae0"></path><circle cx="24" cy="22" r="5" fill="#335262"></circle><path d="M29 47H19a1 1 0 0 1-1-.938l-.867-13.874A3 3 0 0 1 20.129 29h7.742a3 3 0 0 1 2.994 3.188L30 46.062A1 1 0 0 1 29 47z" fill="#335262"></path></g></svg>