<svg xmlns="http://www.w3.org/2000/svg" width="48" height="48" viewBox="0 0 48 48"><title>48px_phone heart</title><rect data-element="frame" x="0" y="0" width="48" height="48" rx="24" ry="24" stroke="none" fill="#ffffff"></rect><g class="nc-icon-wrapper" transform="translate(9.600000000000001 9.600000000000001) scale(0.6)"><path fill="#b7e3fc" d="M9.007 7h30v32h-30z"></path><path d="M35.007 1H12.993a5.006 5.006 0 0 0-5 5v36a5 5 0 0 0 5 5h22.014a5 5 0 0 0 5-5V6a5 5 0 0 0-5-5zm3 37a1 1 0 0 1-1 1H10.993a1 1 0 0 1-1-1L10 8a1 1 0 0 1 1-1h26.007a1 1 0 0 1 1 1z" fill="#444"></path><path d="M31.349 17.482a5.075 5.075 0 0 0-7.349.19 5.069 5.069 0 1 0-7.349 6.979L24 32l7.349-7.349a5.071 5.071 0 0 0 0-7.169z" fill="#ed7064"></path></g></svg>