<svg xmlns="http://www.w3.org/2000/svg" width="48" height="48" viewBox="0 0 48 48"><title>48px_live streaming</title><rect data-element="frame" x="0" y="0" width="48" height="48" rx="24" ry="24" stroke="none" fill="#ffffff"></rect><g class="nc-icon-wrapper" transform="translate(9.600000000000001 9.600000000000001) scale(0.6)"><rect x="1" y="14" width="46" height="32" rx="5" fill="#e6e6e6"></rect><rect x="6" y="16" width="36" height="28" rx="1" fill="#444"></rect><path d="M29.53 30.848l-8 5A1 1 0 0 1 20 35V25a1 1 0 0 1 1.53-.848l8 5a1 1 0 0 1 0 1.7z" fill="#b3b3b3"></path><circle cx="36" cy="12" r="11" fill="#47b0ea"></circle><path d="M43.778 9.222a11 11 0 0 0-15.556 0 1 1 0 0 0 1.414 1.414 9 9 0 0 1 12.728 0 1 1 0 0 0 1.414-1.414z" fill="#fff"></path><path d="M36 11a5.952 5.952 0 0 0-4.242 1.758 1 1 0 1 0 1.414 1.414 4.093 4.093 0 0 1 5.656 0 1 1 0 0 0 1.414-1.414A5.952 5.952 0 0 0 36 11z" fill="#fff"></path><circle cx="36" cy="17" r="1" fill="#fff"></circle></g></svg>